2.8Hzlow3min_grf.mot
version=1
nRows=22
nColumns 19
inDegrees=yes
endheader
time	1_ground_force_vx	1_ground_force_vy	1_ground_force_vz	1_ground_force_px	1_ground_force_py	1_ground_force_pz	1_ground_torque_x	1_ground_torque_y	1_ground_torque_z	2_ground_force_vx	2_ground_force_vy	2_ground_force_vz	2_ground_force_px	2_ground_force_py	2_ground_force_pz	2_ground_torque_x	2_ground_torque_y	2_ground_torque_z
            0.005000	            0.367589	            0.359029	            0.367483	           -0.247483	            0.006142	           -0.387153	            0.002994	           -0.055359	            0.034178	            0.139118	            0.369641	           -0.233386	           -0.249141	            0.005610	           -0.705015	           -0.056364	           -0.000136	           -0.018826
            0.005500	            0.551560	            1.439283	            0.692657	           -0.247483	            0.006142	           -0.387153	           -0.011511	           -0.045780	           -0.014358	            0.094138	           -0.181969	           -0.516906	           -0.249141	            0.005610	           -0.705015	           -0.056363	           -0.009320	           -0.094261
            0.006000	            0.505295	            1.259794	            0.508574	           -0.247483	            0.006142	           -0.387153	            0.071835	           -0.037113	            0.115110	           -0.090665	           -0.918737	           -0.660239	           -0.249141	            0.005610	           -0.705015	           -0.168820	           -0.076030	           -0.056749
            0.006500	            0.459631	            0.899058	            0.552998	           -0.247483	            0.006142	           -0.387153	            0.069966	           -0.036891	            0.056780	            0.047186	           -0.181301	           -0.751527	           -0.249141	            0.005610	           -0.705015	           -0.018648	           -0.047062	           -0.075561
            0.007000	            0.321713	            0.539286	            0.368370	           -0.247483	            0.006142	           -0.387153	            0.059041	           -0.008910	           -0.024117	            0.046000	            0.185824	           -0.421716	           -0.249141	            0.005610	           -0.705015	           -0.112516	           -0.057056	           -0.019005
            0.007500	            0.368338	           -0.002682	            0.641073	           -0.247483	            0.006142	           -0.387153	            0.047623	           -0.055018	           -0.041111	            0.276988	            1.106909	           -0.277746	           -0.249141	            0.005610	           -0.705015	           -0.018673	           -0.046861	           -0.132112
            0.008000	            0.414181	           -0.002673	            0.640959	           -0.247483	            0.006142	           -0.387153	            0.029141	           -0.083214	            0.073558	            0.329176	           -0.366276	           -0.236094	           -0.249141	            0.005610	           -0.705015	           -0.075251	            0.018970	           -0.094152
            0.008500	            0.459338	            1.259982	            0.462832	           -0.247483	            0.006142	           -0.387153	            0.073455	           -0.018084	           -0.018354	            0.374655	            0.002525	           -0.328656	           -0.249141	            0.005610	           -0.705015	           -0.131759	            0.047528	           -0.207128
            0.009000	            0.688439	            1.260223	            0.416407	           -0.247483	            0.006142	           -0.387153	           -0.037143	           -0.064299	            0.010294	            0.380034	           -1.471164	           -0.193128	           -0.249141	            0.005610	           -0.705015	           -0.093909	           -0.009657	           -0.037694
            0.009500	            0.414375	            0.177200	            0.733444	           -0.247483	            0.006142	           -0.387153	            0.043417	           -0.063915	           -0.114382	            0.283593	           -0.734239	           -0.378173	           -0.249141	            0.005610	           -0.705015	           -0.018665	           -0.037744	           -0.037827
            0.010000	            0.413902	            0.898852	            0.598968	           -0.247483	            0.006142	           -0.387153	           -0.044683	            0.018609	            0.036549	           -0.047823	            0.186490	           -0.703245	           -0.249141	            0.005610	           -0.705015	           -0.074978	           -0.056651	           -0.094421
            0.010500	            0.459353	            1.800583	            0.511007	           -0.247483	            0.006142	           -0.387153	            0.052470	            0.000239	            0.019354	            0.001021	           -0.365786	           -0.705236	           -0.249141	            0.005610	           -0.705015	            0.000289	           -0.075756	            0.037431
            0.011000	            0.367556	            0.539295	            0.368256	           -0.247483	            0.006142	           -0.387153	            0.096545	           -0.018045	           -0.041093	           -0.183576	           -1.104228	           -0.379287	           -0.249141	            0.005610	           -0.705015	           -0.037467	           -0.037678	           -0.075520
            0.011500	            0.505459	            0.358466	            0.504709	           -0.247483	            0.006142	           -0.387153	           -0.002864	           -0.018318	            0.040216	            0.094906	           -0.366954	           -0.282923	           -0.249141	            0.005610	           -0.705015	           -0.093774	           -0.038284	            0.037605
            0.012000	            0.459697	            0.538526	            0.551452	           -0.247483	            0.006142	           -0.387153	            0.013835	           -0.036821	            0.038134	            0.140447	            0.001344	           -0.234700	           -0.249141	            0.005610	           -0.705015	           -0.093917	           -0.009590	           -0.056544
            0.012500	            0.322151	            1.259366	            0.600741	           -0.247483	            0.006142	           -0.387153	           -0.007560	           -0.018078	           -0.042815	            0.236223	           -0.551432	           -0.048999	           -0.249141	            0.005610	           -0.705015	            0.018718	            0.009789	           -0.075375
            0.013000	            0.505214	            1.079725	            0.461945	           -0.247483	            0.006142	           -0.387153	            0.129807	           -0.064108	           -0.054326	            0.424164	           -0.733899	           -0.331304	           -0.249141	            0.005610	           -0.705015	           -0.094010	            0.009517	           -0.113028
            0.013500	            0.459715	           -0.182340	            0.502504	           -0.247483	            0.006142	           -0.387153	            0.016105	            0.009636	           -0.018041	            0.140447	            0.001344	           -0.234700	           -0.249141	            0.005610	           -0.705015	           -0.056142	           -0.066171	           -0.056763
            0.014000	            0.689383	            1.078385	            0.782482	           -0.247483	            0.006142	           -0.387153	           -0.015140	            0.018909	            0.010603	           -0.000809	            0.185320	           -0.327840	           -0.249141	            0.005610	           -0.705015	           -0.074945	           -0.056920	           -0.019021
            0.014500	            0.551791	            0.177423	            0.687246	           -0.247483	            0.006142	           -0.387153	            0.045750	           -0.009038	            0.042096	            0.279441	            0.371990	           -0.749655	           -0.249141	            0.005610	           -0.705015	           -0.131242	           -0.066778	            0.037520
            0.015000	            0.781119	            0.177271	            0.732533	           -0.247483	            0.006142	           -0.387153	            0.006185	           -0.027264	            0.014294	           -0.044397	           -0.735089	           -0.471889	           -0.249141	            0.005610	           -0.705015	           -0.056364	           -0.000136	           -0.018826
            0.015500	            0.413414	            1.079904	            0.416317	           -0.247483	            0.006142	           -0.387153	            0.075571	           -0.036674	           -0.001589	           -0.094591	            0.185651	           -0.515512	           -0.249141	            0.005610	           -0.705015	           -0.037527	           -0.018839	           -0.056602
